<svg id="Warstwa_1" data-name="Warstwa 1" xmlns="http://www.w3.org/2000/svg" viewBox="0 0 1099.22 193.35"><defs><style>.cls-1{fill:#02ac46;}</style></defs><title>Logo Kodillla</title><path class="cls-1" d="M90.05,606.66V417.42h43.7V499l69.3-81.56h49L181.2,501.91l75.69,104.75H207.05l-53.57-76.23L133.75,551v55.71Z" transform="translate(-90.05 -415.27)"/><path class="cls-1" d="M459.24,606.66V417.42h70.63q23.46,0,41,7.47a82.54,82.54,0,0,1,47.31,50.24,110.64,110.64,0,0,1,6,36.64q0,21.6-6.67,39.05a83.76,83.76,0,0,1-19.06,29.85,85.44,85.44,0,0,1-29.85,19.19q-17.46,6.79-38.78,6.8Zm120.47-94.89A73.5,73.5,0,0,0,576.38,489a51.12,51.12,0,0,0-9.73-17.73,42.43,42.43,0,0,0-15.72-11.46,53.08,53.08,0,0,0-21.06-4H503V568.28h26.91A50.63,50.63,0,0,0,551.19,564a43,43,0,0,0,15.6-11.86,53.91,53.91,0,0,0,9.59-17.85A72.65,72.65,0,0,0,579.71,511.77Z" transform="translate(-90.05 -415.27)"/><path class="cls-1" d="M646.82,606.66V417.42h43.71V606.66Z" transform="translate(-90.05 -415.27)"/><path class="cls-1" d="M723.71,606.66V417.42h43.71V568.28h91.69v38.38Z" transform="translate(-90.05 -415.27)"/><path class="cls-1" d="M915.83,568.28V417.42H872.12V606.66H993.24l14-38.38Z" transform="translate(-90.05 -415.27)"/><path class="cls-1" d="M1080.8,417.42h39.44l69,189.24h-44.78l-14.66-42.38h-58.89l-14.4,42.38h-44.78Zm41.84,116.74-22.12-66.9-22.66,66.9Z" transform="translate(-90.05 -415.27)"/><path id="eye_copy_4" data-name="eye copy 4" class="cls-1" d="M340.78,486.6A25.35,25.35,0,1,1,315.43,512,25.34,25.34,0,0,1,340.78,486.6Z" transform="translate(-90.05 -415.27)"/><path id="KODILLA_copy_5" data-name="KODILLA copy 5" class="cls-1" d="M340.66,415.27a96.57,96.57,0,1,0,.44,0Zm0,155.35a58.4,58.4,0,0,1-58.54-58.27v-.27c0-32.5,29.94-4.58,58.25-4.58,32.18,0,59.08-27.61,59.08,4.58,0,32.43-26.61,58.54-58.79,58.54Z" transform="translate(-90.05 -415.27)"/></svg>
